<?xml version="1.0" encoding="UTF-8" standalone="no"?>
<svg
   xmlns:dc="http://purl.org/dc/elements/1.1/"
   xmlns:cc="http://creativecommons.org/ns#"
   xmlns:rdf="http://www.w3.org/1999/02/22-rdf-syntax-ns#"
   xmlns:svg="http://www.w3.org/2000/svg"
   xmlns="http://www.w3.org/2000/svg"
   viewBox="0 0 318.95999 400"
   height="400"
   width="318.95999"
   xml:space="preserve"
   id="svg2"
   version="1.1"><metadata
     id="metadata8"><rdf:RDF><cc:Work
         rdf:about=""><dc:format>image/svg+xml</dc:format><dc:type
           rdf:resource="http://purl.org/dc/dcmitype/StillImage" /></cc:Work></rdf:RDF></metadata><defs
     id="defs6" /><g
     transform="matrix(1.3333333,0,0,-1.3333333,0,400)"
     id="g10"><g
       transform="scale(0.1)"
       id="g12"><path
         id="path14"
         style="fill:#142d44;fill-opacity:1;fill-rule:nonzero;stroke:none"
         d="m 2389.96,1727.17 c -0.18,0.62 -0.41,1.24 -0.67,1.83 l -15.56,36.27 -111.07,282.7 -8.1,1.87 c -36.61,8.54 -73.75,12.67 -113.54,12.67 -39.97,0 -81.78,-4.1 -130.9,-12.88 l -79.97,83.4 c 26.92,55.17 64.51,155.85 69.29,221.43 l 0.57,7.89 -271.49,235.85 c -15.42,14.12 -34.53,21.69 -55.52,21.69 -37.22,0 -71.24,-24.55 -80.87,-58.38 -5.16,-18.11 -9.39,-63.21 53.51,-108.23 -30.47,-27.01 -69.98,-50.21 -117.14,-68.12 -6.43,-2.41 -12.1,-3.63 -16.87,-3.63 -5.72,0 -12.27,1.43 -17.52,12.06 -22.03,44.66 9.25,165.15 23.53,183.78 l 5.6,7.29 -19.09,45.37 -4.15,0.61 38.28,234.65 2.55,4.39 28.05,36.48 6.83,70.01 -57.95,5.55 -3.2,-37.21 -26.57,2.88 3.52,36.86 -26.09,2.33 -26.1,2.69 -3.77,-36.84 -26.6,2.33 3.75,36.92 -57.6,5.6 -6.81,-69.41 15.29,-40.36 1.71,-7.02 -4.01,-44.7 -84.05,5.94 2.98,45.74 26.65,42.53 v 70 h -57.93 v -37.23 l -26.52,0.18 V 3000 h -52.83 v -37.05 l -26.56,-0.18 V 3000 h -57.9 v -70 l 26.65,-42.53 2.98,-45.74 -84.07,-5.94 -4.02,44.6 1.79,7.33 15.2,40.15 -6.77,69.41 -57.646,-5.6 3.758,-36.92 -26.519,-2.33 -3.516,36.83 -26.359,-2.68 -26.114,-2.33 3.469,-36.86 -26.543,-2.88 -3.226,37.21 -57.907,-5.55 6.797,-70.01 26.078,-33.89 4.621,-7.37 38.168,-234.26 -4.144,-0.61 -19.094,-45.37 5.598,-7.29 c 14.277,-18.62 45.558,-139.1 23.535,-183.78 -5.242,-10.63 -11.785,-12.06 -17.5,-12.06 -4.75,0 -10.418,1.22 -16.801,3.61 -47.09,17.92 -86.543,41.13 -116.969,68.14 62.848,45.05 58.582,90.17 53.414,108.27 -9.648,33.81 -43.613,58.34 -80.785,58.34 -21.574,0 -41.164,-8.01 -56.808,-22.92 l -270.203,-234.62 0.582,-7.9 c 4.824,-65.61 42.414,-166.26 69.32,-221.42 l -79.965,-83.4 c -49.148,8.78 -90.953,12.88 -130.918,12.88 -39.773,0 -76.914,-4.13 -113.527,-12.67 l -8.102,-1.87 -110.8279,-282.1 -15.42188,-35.78 c -0.11719,-0.26 -0.22656,-0.51 -0.32031,-0.78 l -0.25,-0.68 c -0.12891,-0.34 -0.25,-0.71 -0.35547,-1.07 -0.75781,-2.55 -1.32031,-5.12 -1.71094,-7.68 l -0.34375,-2.38 c -1.61719,-14.53 2.48047,-29.12 11.98825,-42 16.7618,-22.7 48.6719,-37.37 81.3047,-37.38 h 0.0156 c 51.0467,0 91.5427,32.54 111.1367,88.08 8.055,-7.73 15.727,-16.39 22.926,-25.95 70.832,-94.08 84.265,-250.56 35.961,-418.63 C 230.496,1176.72 163.23,1057.18 45.582,894.059 l -7.2461,-10.047 8.0196,-9.453 C 247.117,637.879 441.25,507.52 592.992,507.52 c 47.461,0 89.043,12.98 122.281,37.89 C 722.426,378.398 902.027,170.988 1188.03,4.62891 L 1195.99,0 l 7.95,4.62891 C 1490.07,171.07 1669.77,378.488 1676.96,545.41 c 33.23,-24.91 74.83,-37.89 122.3,-37.89 151.73,0 345.86,130.359 546.64,367.039 l 8,9.453 -7.24,10.047 c -117.62,163.031 -184.88,282.571 -218.09,387.561 -48.31,168.07 -34.88,324.55 35.97,418.64 7.18,9.55 14.86,18.23 22.91,25.94 19.59,-55.54 60.09,-88.08 111.15,-88.08 32.63,0 64.55,14.67 81.31,37.37 11.62,15.74 15.17,34.06 10.05,51.68" /><path
         id="path16"
         style="fill:#8f7b4f;fill-opacity:1;fill-rule:evenodd;stroke:none"
         d="m 1564.04,2967.03 -37,3.54 -3.21,-37.34 -47.46,5.16 3.49,36.65 -15.69,1.4 -15.76,1.62 -3.75,-36.67 -47.43,4.15 3.77,37.03 -36.75,3.56 -5.12,-52.08 199.66,-20.83 5.25,53.81" /><path
         id="path18"
         style="fill:#8f7b4f;fill-opacity:1;fill-rule:evenodd;stroke:none"
         d="m 1446.41,2747.54 c -2.61,3.2 -6.3,5.17 -10.4,5.54 -4.26,0.52 -8.38,-0.7 -11.71,-3.4 -3.34,-2.7 -5.44,-6.53 -5.94,-10.76 l -10.03,-96.13 c 10.73,-1.22 21.28,-2.49 31.58,-3.78 l 9.88,96.76 c 0.5,4.32 -0.71,8.48 -3.38,11.77" /><path
         id="path20"
         style="fill:#8f7b4f;fill-opacity:1;fill-rule:evenodd;stroke:none"
         d="m 1180.05,2762.88 -0.22,-104.65 c 5.44,0.15 10.79,0.27 15.96,0.34 h 0.22 0.21 c 5.04,-0.07 10.21,-0.19 15.49,-0.34 v 104.65 c 0,8.63 -7.16,15.66 -15.96,15.66 -8.65,0 -15.7,-7.03 -15.7,-15.66" /><path
         id="path22"
         style="fill:#8f7b4f;fill-opacity:1;fill-rule:evenodd;stroke:none"
         d="m 1296.16,2989.82 h -37.02 v -37.32 l -47.43,0.34 v 36.98 h -31.91 v -36.98 l -47.48,-0.34 v 37.32 h -36.98 v -52.81 h 200.82 v 52.81" /><path
         id="path24"
         style="fill:#8f7b4f;fill-opacity:1;fill-rule:evenodd;stroke:none"
         d="m 993.563,2643.96 c 14.227,1.59 28.697,3.11 43.217,4.52 l -20.57,229.14 -151.3,-17.28 37.176,-227.93 c 12.352,1.77 25.457,3.55 39.094,5.29 l -9.907,97.01 c -0.82,6.99 1.188,13.91 5.668,19.41 4.407,5.43 10.645,8.75 17.559,9.38 14.184,1.63 27.336,-8.82 29.023,-23.37 z m -96.696,172.28 -4.109,36.16 39.371,4 4.109,-36.15 z m 57.621,6.14 -3.804,35.89 39.41,4.35 3.765,-36.19 -39.371,-4.05" /><path
         id="path26"
         style="fill:#8f7b4f;fill-opacity:1;fill-rule:evenodd;stroke:none"
         d="m 1032.34,2933.92 -5.09,52.21 -36.797,-3.56 3.781,-37.03 -47.425,-4.16 -3.508,36.69 -15.942,-1.63 -15.718,-1.4 3.445,-36.65 -47.402,-5.16 -3.25,37.34 -36.973,-3.54 5.191,-53.62 199.688,20.51" /><path
         id="path28"
         style="fill:#8f7b4f;fill-opacity:1;fill-rule:evenodd;stroke:none"
         d="m 955.578,2753.1 c -4.219,-0.38 -7.91,-2.36 -10.523,-5.58 -2.676,-3.29 -3.883,-7.44 -3.387,-11.67 l 9.887,-96.84 c 10.308,1.29 20.871,2.55 31.609,3.78 l -10.039,96.2 c -1.023,8.75 -8.895,15.07 -17.547,14.11" /><path
         id="path30"
         style="fill:#8f7b4f;fill-opacity:1;fill-rule:evenodd;stroke:none"
         d="m 93.4023,1670.02 c 18.9567,0 63.8677,7.47 83.7537,74.37 0.321,1.1 0.524,2.2 0.594,3.32 -21.965,14.14 -45.512,21.75 -68.797,21.75 -22.0975,0 -43.2694,-6.57 -62.9764,-19.52 l -13.125,-30.45 c -0.3477,-0.78 -0.6328,-1.58 -0.8243,-2.41 -1.746,-7.63 0.1094,-15.19 5.5274,-22.52 10.8203,-14.68 33.2617,-24.54 55.8476,-24.54" /><path
         id="path32"
         style="fill:#8f7b4f;fill-opacity:1;fill-rule:evenodd;stroke:none"
         d="m 2359.74,1717.08 c -0.19,0.83 -0.49,1.63 -0.82,2.4 l -13.13,30.45 c -19.72,12.96 -40.89,19.53 -63,19.53 -23.29,0 -46.82,-7.63 -68.79,-21.75 0.09,-1.12 0.28,-2.22 0.6,-3.3 19.87,-66.91 64.8,-74.38 83.76,-74.38 22.59,0 45.03,9.86 55.85,24.52 5.41,7.34 7.26,14.91 5.53,22.53" /><path
         id="path34"
         style="fill:#8f7b4f;fill-opacity:1;fill-rule:evenodd;stroke:none"
         d="m 769.32,2553.14 c -5.75,20.18 -27.406,35.4 -50.363,35.4 -11.566,0 -27.68,-3.81 -41.187,-21.06 5.882,-32.69 21.574,-63.51 45.859,-91.19 36.105,24.57 52.699,52.27 45.691,76.85" /><path
         id="path36"
         style="fill:#8f7b4f;fill-opacity:1;fill-rule:evenodd;stroke:none"
         d="m 1668.11,2476.3 c 24.3,27.67 39.99,58.49 45.87,91.18 -13.5,17.25 -29.64,21.05 -41.23,21.05 -22.99,0 -44.68,-15.22 -50.44,-35.41 -7,-24.57 9.65,-52.26 45.8,-76.82" /><path
         id="path38"
         style="fill:#8f7b4f;fill-opacity:1;fill-rule:evenodd;stroke:none"
         d="m 1152.3,2841.96 h 28.96 v 25.74 h -28.96 v -25.74" /><path
         id="path40"
         style="fill:#8f7b4f;fill-opacity:1;fill-rule:evenodd;stroke:none"
         d="m 1210.23,2841.96 h 28.94 v 25.74 h -28.94 v -25.74" /><path
         id="path42"
         style="fill:#8f7b4f;fill-opacity:1;fill-rule:evenodd;stroke:none"
         d="m 1137.1,2656.38 c 11.07,0.62 21.86,1.13 32.26,1.51 l 0.23,105 c 0,14.39 11.74,26.1 26.16,26.1 14.56,0 26.42,-11.71 26.42,-26.11 v -104.97 c 10.38,-0.39 21.17,-0.89 32.24,-1.51 l 14.85,227.78 h -147.03 z m 67.77,216.67 h 39.66 v -36.46 h -39.66 z m -57.94,0 h 39.69 v -36.46 h -39.69 v 36.46" /><path
         id="path44"
         style="fill:#8f7b4f;fill-opacity:1;fill-rule:evenodd;stroke:none"
         d="m 898.707,2847.61 2.887,-25.5 28.703,2.92 -2.899,25.51 -28.691,-2.93" /><path
         id="path46"
         style="fill:#8f7b4f;fill-opacity:1;fill-rule:evenodd;stroke:none"
         d="m 956.586,2853.52 2.672,-25.26 28.715,2.95 -2.649,25.48 -28.738,-3.17" /><path
         id="path48"
         style="fill:#8f7b4f;fill-opacity:1;fill-rule:evenodd;stroke:none"
         d="m 1526.59,2860.33 -151.33,17.3 -20.54,-229.15 c 14.51,-1.41 28.98,-2.93 43.22,-4.51 l 10.04,96.1 c 0.82,7.03 4.27,13.31 9.75,17.73 5.52,4.49 12.41,6.49 19.36,5.68 6.8,-0.6 13.03,-3.93 17.43,-9.35 4.47,-5.5 6.49,-12.42 5.67,-19.49 l -9.91,-96.94 c 13.65,-1.75 26.77,-3.53 39.14,-5.3 z m -89.58,-37.95 -39.37,4.05 3.77,36.18 39.37,-4.34 z m 18.26,-2.13 4.05,36.15 39.42,-4.01 -4.11,-36.15 -39.36,4.01" /><path
         id="path50"
         style="fill:#8f7b4f;fill-opacity:1;fill-rule:evenodd;stroke:none"
         d="m 1461.2,2825.03 28.7,-2.92 2.9,25.51 -28.74,2.92 -2.86,-25.51" /><path
         id="path52"
         style="fill:#8f7b4f;fill-opacity:1;fill-rule:evenodd;stroke:none"
         d="m 1434.88,2853.52 -28.7,3.17 -2.65,-25.48 28.71,-2.95 2.64,25.26" /><path
         id="path54"
         style="fill:#8f7b4f;fill-opacity:1;fill-rule:evenodd;stroke:none"
         d="m 1068.49,2794.56 -2.05,24.66 -30.86,-2.61 2.1,-24.41 30.81,2.36" /><path
         id="path56"
         style="fill:#8f7b4f;fill-opacity:1;fill-rule:evenodd;stroke:none"
         d="m 1115.67,2798.29 -1.8,24.39 -30.84,-2.34 1.82,-24.39 30.82,2.34" /><path
         id="path58"
         style="fill:#8f7b4f;fill-opacity:1;fill-rule:evenodd;stroke:none"
         d="m 1088.14,2767.25 -20.13,-1.55 1.55,-20.37 20.11,1.83 -1.53,20.09" /><path
         id="path60"
         style="fill:#8f7b4f;fill-opacity:1;fill-rule:evenodd;stroke:none"
         d="m 1059.72,2759.76 -9.66,-0.75 0.73,-9.67 9.65,0.76 -0.72,9.66" /><path
         id="path62"
         style="fill:#8f7b4f;fill-opacity:1;fill-rule:evenodd;stroke:none"
         d="m 1106.92,2763.52 -9.67,-0.76 0.76,-9.66 9.9,0.76 -0.99,9.66" /><path
         id="path64"
         style="fill:#8f7b4f;fill-opacity:1;fill-rule:evenodd;stroke:none"
         d="m 1044.64,2691.7 30.82,2.36 -2.07,24.4 -30.59,-2.36 1.84,-24.4" /><path
         id="path66"
         style="fill:#8f7b4f;fill-opacity:1;fill-rule:evenodd;stroke:none"
         d="m 1092.08,2695.46 30.59,2.36 -1.84,24.41 -30.8,-2.35 2.05,-24.42" /><path
         id="path68"
         style="fill:#8f7b4f;fill-opacity:1;fill-rule:evenodd;stroke:none"
         d="m 1076.56,2656.06 20.34,1.55 -1.8,20.37 -20.12,-1.83 1.58,-20.09" /><path
         id="path70"
         style="fill:#8f7b4f;fill-opacity:1;fill-rule:evenodd;stroke:none"
         d="m 1057.78,2659.82 9.64,0.73 -0.73,9.66 -9.66,-0.76 0.75,-9.63" /><path
         id="path72"
         style="fill:#8f7b4f;fill-opacity:1;fill-rule:evenodd;stroke:none"
         d="m 1105.22,2663.55 9.67,0.76 -0.76,9.65 -9.91,-0.75 1,-9.66" /><path
         id="path74"
         style="fill:#8f7b4f;fill-opacity:1;fill-rule:evenodd;stroke:none"
         d="m 1355.91,2809.16 -30.85,2.62 -2.09,-24.67 30.85,-2.36 2.09,24.41" /><path
         id="path76"
         style="fill:#8f7b4f;fill-opacity:1;fill-rule:evenodd;stroke:none"
         d="m 1275.79,2790.84 30.85,-2.33 1.81,24.38 -30.82,2.36 -1.84,-24.41" /><path
         id="path78"
         style="fill:#8f7b4f;fill-opacity:1;fill-rule:evenodd;stroke:none"
         d="m 1301.82,2747.15 20.09,-1.83 1.55,20.39 -20.1,1.53 -1.54,-20.09" /><path
         id="path80"
         style="fill:#8f7b4f;fill-opacity:1;fill-rule:evenodd;stroke:none"
         d="m 1331.78,2759.76 -0.76,-9.66 9.65,-0.76 0.76,9.67 -9.65,0.75" /><path
         id="path82"
         style="fill:#8f7b4f;fill-opacity:1;fill-rule:evenodd;stroke:none"
         d="m 1284.6,2763.52 -0.76,-9.66 9.65,-0.76 0.76,9.66 -9.65,0.76" /><path
         id="path84"
         style="fill:#8f7b4f;fill-opacity:1;fill-rule:evenodd;stroke:none"
         d="m 1316.01,2694.06 30.84,-2.36 1.81,24.41 -30.56,2.35 -2.09,-24.4" /><path
         id="path86"
         style="fill:#8f7b4f;fill-opacity:1;fill-rule:evenodd;stroke:none"
         d="m 1268.83,2697.82 30.55,-2.36 2.09,24.41 -30.84,2.36 -1.8,-24.41" /><path
         id="path88"
         style="fill:#8f7b4f;fill-opacity:1;fill-rule:evenodd;stroke:none"
         d="m 1294.57,2657.61 20.38,-1.55 1.54,20.1 -20.11,1.83 -1.81,-20.38" /><path
         id="path90"
         style="fill:#8f7b4f;fill-opacity:1;fill-rule:evenodd;stroke:none"
         d="m 1333.71,2659.82 0.76,9.63 -9.65,0.76 -0.77,-9.66 9.66,-0.73" /><path
         id="path92"
         style="fill:#8f7b4f;fill-opacity:1;fill-rule:evenodd;stroke:none"
         d="m 1286.54,2663.55 0.71,9.66 -9.92,0.75 -0.71,-9.65 9.92,-0.76" /><path
         id="path94"
         style="fill:#8f7b4f;fill-opacity:1;fill-rule:evenodd;stroke:none"
         d="m 1485.73,2589.15 c 1.19,5.73 -2.51,11.33 -8.23,12.51 -165.74,34.16 -397.47,34.16 -563.535,0 -5.727,-1.18 -9.418,-6.77 -8.231,-12.51 1.176,-5.73 6.758,-9.41 12.508,-8.23 163.528,33.63 391.748,33.64 554.978,0 0.72,-0.16 1.44,-0.23 2.15,-0.23 4.92,0 9.34,3.46 10.36,8.46" /><path
         id="path96"
         style="fill:#8f7b4f;fill-opacity:1;fill-rule:evenodd;stroke:none"
         d="m 1443.76,2377.59 c 8.59,0 16.3,6.02 18.11,14.77 2.05,10 -4.39,19.79 -14.39,21.86 -166.9,34.42 -336.29,34.42 -503.453,0 -10.015,-2.07 -16.453,-11.85 -14.398,-21.86 2.066,-10.01 11.844,-16.46 21.859,-14.39 162.212,33.42 326.572,33.42 488.522,0 1.26,-0.25 2.52,-0.38 3.75,-0.38" /><path
         id="path98"
         style="fill:#8f7b4f;fill-opacity:1;fill-rule:evenodd;stroke:none"
         d="m 916.094,2559.35 5.379,-25.72 c 13.937,2.92 28.597,5.58 43.578,7.92 L 961,2567.51 c -15.434,-2.4 -30.547,-5.15 -44.906,-8.16" /><path
         id="path100"
         style="fill:#8f7b4f;fill-opacity:1;fill-rule:evenodd;stroke:none"
         d="m 996.043,2572.68 3.148,-26.09 c 16.319,1.97 35.349,4.21 54.529,5.88 l -2.28,26.17 c -19.58,-1.71 -38.86,-3.98 -55.397,-5.96" /><path
         id="path102"
         style="fill:#8f7b4f;fill-opacity:1;fill-rule:evenodd;stroke:none"
         d="m 1089.98,2581.6 1.9,-26.21 c 15.9,1.16 33.69,2 56,2.66 l -0.77,26.26 c -22.69,-0.67 -40.84,-1.53 -57.13,-2.71" /><path
         id="path104"
         style="fill:#8f7b4f;fill-opacity:1;fill-rule:evenodd;stroke:none"
         d="m 1183.81,2585.1 0.28,-26.27 c 28.53,0.29 57.59,-0.25 86.38,-1.59 l 1.22,26.24 c -29.27,1.37 -58.84,1.91 -87.88,1.62" /><path
         id="path106"
         style="fill:#8f7b4f;fill-opacity:1;fill-rule:evenodd;stroke:none"
         d="m 1307.64,2555.14 c 25.65,-1.91 50.7,-4.34 74.46,-7.2 l 3.15,26.08 c -24.15,2.92 -49.61,5.38 -75.66,7.32 l -1.95,-26.2" /><path
         id="path108"
         style="fill:#8f7b4f;fill-opacity:1;fill-rule:evenodd;stroke:none"
         d="m 1475.37,2559.35 c -16.31,3.42 -34.96,6.71 -57.02,10.08 l -3.94,-25.99 c 21.56,-3.28 39.73,-6.48 55.58,-9.81 l 5.38,25.72" /><path
         id="path110"
         style="fill:#8f7b4f;fill-opacity:1;fill-rule:evenodd;stroke:none"
         d="m 947.23,2486.31 -3.792,26.01 c -5.715,-0.85 -11.344,-1.97 -16.786,-3.07 l 5.192,-25.75 c 5.332,1.07 10.383,2.09 15.386,2.81" /><path
         id="path112"
         style="fill:#8f7b4f;fill-opacity:1;fill-rule:evenodd;stroke:none"
         d="m 966.078,2489.87 c 17.203,2.98 35.342,5.67 55.452,8.22 l -3.3,26.06 c -20.515,-2.6 -39.039,-5.36 -56.632,-8.4 l 4.48,-25.88" /><path
         id="path114"
         style="fill:#8f7b4f;fill-opacity:1;fill-rule:evenodd;stroke:none"
         d="m 1049.08,2501.25 c 20.01,2.05 38.15,3.54 55.45,4.54 l -1.51,26.23 c -17.7,-1.02 -36.22,-2.54 -56.63,-4.63 l 2.69,-26.14" /><path
         id="path116"
         style="fill:#8f7b4f;fill-opacity:1;fill-rule:evenodd;stroke:none"
         d="m 1135.16,2507.38 c 26.56,1.12 52.21,1.58 76.29,1.33 l 0.26,26.27 c -24.51,0.25 -50.65,-0.21 -77.66,-1.35 l 1.11,-26.25" /><path
         id="path118"
         style="fill:#8f7b4f;fill-opacity:1;fill-rule:evenodd;stroke:none"
         d="m 1245.74,2507.89 c 25.6,-0.77 51.29,-2.36 76.38,-4.75 l 2.48,26.16 c -25.65,2.43 -51.92,4.06 -78.08,4.86 l -0.78,-26.27" /><path
         id="path120"
         style="fill:#8f7b4f;fill-opacity:1;fill-rule:evenodd;stroke:none"
         d="m 1353.45,2500.23 c 27.38,-3.27 51.15,-6.75 72.67,-10.6 l 4.65,25.86 c -22.03,3.95 -46.3,7.49 -74.21,10.83 l -3.11,-26.09" /><path
         id="path122"
         style="fill:#8f7b4f;fill-opacity:1;fill-rule:evenodd;stroke:none"
         d="m 1457.91,2510.89 c -2.21,0.6 -4.35,1.17 -6.13,1.55 l -5.35,-25.73 c 1.32,-0.28 2.9,-0.71 4.53,-1.16 3.16,-0.87 6.43,-1.76 9.49,-2.19 l 3.61,26.03 c -1.38,0.19 -4.03,0.91 -6.15,1.5" /><path
         id="path124"
         style="fill:#8f7b4f;fill-opacity:1;fill-rule:evenodd;stroke:none"
         d="m 934.473,2461.47 5.644,-25.67 c 13.625,3 27.988,5.55 41.887,8.02 l 2.648,0.48 -4.609,25.88 -2.648,-0.48 c -14.149,-2.52 -28.786,-5.13 -42.922,-8.23" /><path
         id="path126"
         style="fill:#8f7b4f;fill-opacity:1;fill-rule:evenodd;stroke:none"
         d="m 1012.49,2448.5 c 17.73,2.35 36.06,4.79 54.36,6.38 l -2.27,26.17 c -18.91,-1.64 -37.54,-4.11 -55.56,-6.51 l 3.47,-26.04" /><path
         id="path128"
         style="fill:#8f7b4f;fill-opacity:1;fill-rule:evenodd;stroke:none"
         d="m 1094.71,2457.29 c 18.9,1.58 38.04,2.65 56.89,3.16 l -0.7,26.27 c -19.35,-0.52 -39,-1.62 -58.39,-3.25 l 2.2,-26.18" /><path
         id="path130"
         style="fill:#8f7b4f;fill-opacity:1;fill-rule:evenodd;stroke:none"
         d="m 1183.83,2487.54 0.24,-26.27 c 26.92,0.23 55.68,-0.48 85.46,-2.15 l 1.46,26.24 c -30.35,1.69 -59.65,2.43 -87.16,2.18" /><path
         id="path132"
         style="fill:#8f7b4f;fill-opacity:1;fill-rule:evenodd;stroke:none"
         d="m 1303.49,2456.99 c 26.21,-2.21 50.35,-4.89 73.81,-8.22 l 3.69,26.02 c -23.96,3.4 -48.58,6.14 -75.3,8.39 l -2.2,-26.19" /><path
         id="path134"
         style="fill:#8f7b4f;fill-opacity:1;fill-rule:evenodd;stroke:none"
         d="m 1405.09,2444.55 c 15.17,-2.58 30.46,-5.45 46.75,-8.78 l 5.26,25.74 c -16.57,3.38 -32.15,6.32 -47.6,8.94 l -4.41,-25.9" /><path
         id="path136"
         style="fill:#8f7b4f;fill-opacity:1;fill-rule:evenodd;stroke:none"
         d="m 1191.6,2266.63 h 8.31 v 107.23 h -8.31 v -107.23" /><path
         id="path138"
         style="fill:#8f7b4f;fill-opacity:1;fill-rule:evenodd;stroke:none"
         d="m 1174.69,2274.33 0.82,98.68 -8.3,0.07 -0.82,-98.68 8.3,-0.07" /><path
         id="path140"
         style="fill:#8f7b4f;fill-opacity:1;fill-rule:evenodd;stroke:none"
         d="m 1149.23,2372.23 h -8.32 v -87.13 h 8.32 v 87.13" /><path
         id="path142"
         style="fill:#8f7b4f;fill-opacity:1;fill-rule:evenodd;stroke:none"
         d="m 1124.02,2370.62 h -8.31 v -75.85 h 8.31 v 75.85" /><path
         id="path144"
         style="fill:#8f7b4f;fill-opacity:1;fill-rule:evenodd;stroke:none"
         d="m 1098.55,2367.43 h -8.32 v -60.07 h 8.32 v 60.07" /><path
         id="path146"
         style="fill:#8f7b4f;fill-opacity:1;fill-rule:evenodd;stroke:none"
         d="m 1073.34,2364.74 h -8.31 v -49.34 h 8.31 v 49.34" /><path
         id="path148"
         style="fill:#8f7b4f;fill-opacity:1;fill-rule:evenodd;stroke:none"
         d="m 1047.87,2362.32 h -8.31 v -33.52 h 8.31 v 33.52" /><path
         id="path150"
         style="fill:#8f7b4f;fill-opacity:1;fill-rule:evenodd;stroke:none"
         d="m 1022.7,2357.78 h -8.32 v -17.17 h 8.32 v 17.17" /><path
         id="path152"
         style="fill:#8f7b4f;fill-opacity:1;fill-rule:evenodd;stroke:none"
         d="m 1217.06,2274.33 8.32,0.07 -0.82,98.68 -8.32,-0.07 0.82,-98.68" /><path
         id="path154"
         style="fill:#8f7b4f;fill-opacity:1;fill-rule:evenodd;stroke:none"
         d="m 1250.59,2372.23 h -8.32 v -87.13 h 8.32 v 87.13" /><path
         id="path156"
         style="fill:#8f7b4f;fill-opacity:1;fill-rule:evenodd;stroke:none"
         d="m 1275.76,2370.62 h -8.31 v -75.85 h 8.31 v 75.85" /><path
         id="path158"
         style="fill:#8f7b4f;fill-opacity:1;fill-rule:evenodd;stroke:none"
         d="m 1301.22,2367.43 h -8.31 v -60.07 h 8.31 v 60.07" /><path
         id="path160"
         style="fill:#8f7b4f;fill-opacity:1;fill-rule:evenodd;stroke:none"
         d="m 1326.43,2364.74 h -8.31 v -49.34 h 8.31 v 49.34" /><path
         id="path162"
         style="fill:#8f7b4f;fill-opacity:1;fill-rule:evenodd;stroke:none"
         d="m 1351.9,2362.32 h -8.31 v -33.52 h 8.31 v 33.52" /><path
         id="path164"
         style="fill:#8f7b4f;fill-opacity:1;fill-rule:evenodd;stroke:none"
         d="m 1377.11,2357.78 h -8.31 v -17.17 h 8.31 v 17.17" /><path
         id="path166"
         style="fill:#8f7b4f;fill-opacity:1;fill-rule:evenodd;stroke:none"
         d="m 1573.22,603.441 c -37.62,0 -68.22,-30.492 -68.22,-67.992 0,-37.609 30.6,-68.211 68.22,-68.211 3.1,0 6.14,0.223 9.13,0.641 C 1525.12,321.23 1332.78,166.172 1195.75,85.2695 1058.58,166.262 866.008,321.52 808.984,468.301 c 3.02,-0.422 6.121,-0.66 9.27,-0.66 37.527,0 67.832,30.281 67.832,67.808 0,37.27 -30.305,67.59 -67.832,67.59 -37.543,0 -67.555,-30.32 -67.555,-67.59 0,-4.367 0.418,-8.629 1.203,-12.769 C 774.629,327.031 1044.7,123.441 1185.26,42.6602 l 10.49,-6.0313 10.48,6.0313 c 139.16,79.9688 405.23,280.2888 432.61,474.1288 1.7,5.941 2.63,12.191 2.63,18.66 0,37.5 -30.63,67.992 -68.25,67.992" /><path
         id="path168"
         style="fill:#8f7b4f;fill-opacity:1;fill-rule:evenodd;stroke:none"
         d="m 2073.24,1386.3 c -17.63,120.39 0.68,231.7 51.54,313.41 44.61,71.67 111.36,112.36 166,101.23 l 38.09,-7.74 -90.47,227.95 -12.17,1.69 c -87.13,11.98 -129.68,12.47 -227.61,-8.72 l -106.35,113.44 c 26.53,53.65 63.01,147.56 72.55,210.15 l 1.76,11.51 -225.04,193.87 -10.73,-27.93 c -19.6,-51.07 -71.46,-102.14 -138.75,-136.64 -53.22,-25.16 -104.33,-40.67 -158.42,-57.09 -73.42,-22.29 -149.25,-45.3 -237.9,-94.48 -88.63,49.18 -164.48,72.19 -237.908,94.48 -54.102,16.42 -105.207,31.93 -158.43,57.09 -67.125,34.55 -118.875,85.61 -138.461,136.64 l -10.718,27.93 -225.043,-193.87 1.758,-11.51 c 9.531,-62.51 46,-156.46 72.515,-210.15 L 393.105,2014.13 c -97.906,21.18 -140.457,20.69 -227.625,8.71 l -12.164,-1.68 -90.4176,-227.96 38.0856,7.74 c 54.637,11.13 121.379,-29.56 166,-101.23 50.86,-81.71 69.164,-193.02 51.539,-313.41 C 295.996,1232.5 218.586,1069.09 88.4258,900.609 l -10.5352,-13.64 11.2969,-13.02 C 268.957,666.82 449.246,545.75 583.848,541.781 l 0.632,-0.011 0.629,0.011 c 59.864,1.821 99.77,16.219 118.766,42.809 10.273,11.93 16.512,27.43 16.512,44.359 0,37.531 -30.567,67.852 -68.11,67.852 -37.527,0 -67.797,-30.321 -67.797,-67.852 0,-16.84 6.094,-32.25 16.192,-44.16 -5.18,-0.43 -10.586,-0.738 -16.203,-0.91 C 484.461,587.141 348.852,668.75 209.27,807.012 L 1800.94,2395.79 1776.86,2416.5 187.02,829.5 c -18.235,18.789 -36.508,38.52 -54.743,59.148 128.282,169.452 204.93,334.752 227.895,491.552 19.066,130.24 -1.34,251.6 -57.449,341.76 -45.86,73.66 -111.235,118.74 -174.153,122.65 l 54.805,138.15 c 77.707,10.15 116.422,9.13 212.297,-12.3 l 11.723,-2.63 143.191,152.73 -7.078,13.31 c -27.235,51.09 -61.504,139.97 -72.981,198.84 l 163.516,140.88 c 28.395,-51.38 80.309,-98.7 146.434,-132.68 l 0.617,-0.29 c 56.144,-26.58 108.785,-42.56 164.515,-59.48 74.071,-22.47 150.661,-45.71 239.691,-96.62 l 10.44,-5.96 10.46,5.96 c 89.04,50.91 165.61,74.15 239.67,96.64 55.73,16.9 108.35,32.88 164.5,59.46 l 0.58,0.28 c 66.31,33.93 118.33,81.26 146.77,132.69 l 163.52,-140.88 c -11.51,-58.92 -45.79,-147.79 -73.02,-198.83 l -7.09,-13.31 143.2,-152.74 11.73,2.63 c 42.6,9.52 73.93,15.01 102.39,17.28 L 744.289,627.609 766.707,605.281 2144.07,1988.72 c 19.58,-0.7 40.04,-2.78 64.28,-5.96 l 54.84,-138.15 c -62.91,-3.92 -128.29,-48.99 -174.15,-122.65 -56.11,-90.16 -76.52,-211.52 -57.45,-341.76 22.96,-156.8 99.62,-322.1 227.89,-491.54 -165.63,-187.351 -333.85,-300.922 -452.19,-304.781 -5.63,0.172 -11.03,0.48 -16.21,0.91 10.1,11.91 16.2,27.32 16.2,44.16 0,37.531 -30.31,67.852 -67.85,67.852 -37.52,0 -68.06,-30.321 -68.06,-67.852 0,-17 6.28,-32.551 16.6,-44.488 19.04,-26.512 58.91,-40.859 118.68,-42.68 l 0.62,-0.011 0.63,0.011 c 134.6,3.969 314.91,125.039 494.66,332.168 l 11.3,13.02 -10.54,13.64 C 2173.18,1069.09 2095.77,1232.5 2073.24,1386.3" /><path
         id="path170"
         style="fill:#8f7b4f;fill-opacity:1;fill-rule:evenodd;stroke:none"
         d="m 899.738,1902.52 c 0,62.25 -50.73,112.89 -113.097,112.89 -62.11,0 -112.637,-50.64 -112.637,-112.89 0,-62.24 50.527,-112.88 112.637,-112.88 62.367,0 113.097,50.64 113.097,112.88" /><path
         id="path172"
         style="fill:#8f7b4f;fill-opacity:1;fill-rule:evenodd;stroke:none"
         d="m 717.098,2091.79 -48.817,144.26 -7.867,-2.67 48.816,-144.25 7.868,2.66" /><path
         id="path174"
         style="fill:#8f7b4f;fill-opacity:1;fill-rule:evenodd;stroke:none"
         d="m 747.863,2249.66 -8.258,-0.93 16.61,-145.6 8.258,0.94 -16.61,145.59" /><path
         id="path176"
         style="fill:#8f7b4f;fill-opacity:1;fill-rule:evenodd;stroke:none"
         d="m 816.789,2242.04 -12.332,-138.59 8.281,-0.74 12.328,138.59 -8.277,0.74" /><path
         id="path178"
         style="fill:#8f7b4f;fill-opacity:1;fill-rule:evenodd;stroke:none"
         d="m 631.016,2117.18 38.363,-50.68 6.613,5.02 -38.344,50.68 -6.632,-5.02" /><path
         id="path180"
         style="fill:#8f7b4f;fill-opacity:1;fill-rule:evenodd;stroke:none"
         d="m 580.078,2057.72 47.485,-30.27 4.457,7.01 -47.473,30.27 -4.469,-7.01" /><path
         id="path182"
         style="fill:#8f7b4f;fill-opacity:1;fill-rule:evenodd;stroke:none"
         d="m 905.922,2207.05 -8.012,2.23 -33.512,-120.13 8.008,-2.24 33.516,120.14" /><path
         id="path184"
         style="fill:#8f7b4f;fill-opacity:1;fill-rule:evenodd;stroke:none"
         d="m 979.668,2165.23 -77.496,-93.57 6.406,-5.3 77.492,93.58 -6.402,5.29" /><path
         id="path186"
         style="fill:#8f7b4f;fill-opacity:1;fill-rule:evenodd;stroke:none"
         d="m 936.324,2041.73 5.813,-5.94 102.443,100.28 -5.83,5.94 -102.426,-100.28" /><path
         id="path188"
         style="fill:#8f7b4f;fill-opacity:1;fill-rule:evenodd;stroke:none"
         d="m 1105.82,2079.88 -4.1,7.23 -142.083,-80.43 4.086,-7.23 142.097,80.43" /><path
         id="path190"
         style="fill:#8f7b4f;fill-opacity:1;fill-rule:evenodd;stroke:none"
         d="m 1282.17,2053.99 -302.397,-94.11 2.469,-7.93 302.398,94.1 -2.47,7.94" /><path
         id="path192"
         style="fill:#8f7b4f;fill-opacity:1;fill-rule:evenodd;stroke:none"
         d="M 1156.32,1899.98 H 988.754 v -8.31 h 167.566 v 8.31" /><path
         id="path194"
         style="fill:#8f7b4f;fill-opacity:1;fill-rule:evenodd;stroke:none"
         d="m 1078.56,1824.95 -94.876,32.17 -2.672,-7.88 94.878,-32.17 2.67,7.88" /><path
         id="path196"
         style="fill:#8f7b4f;fill-opacity:1;fill-rule:evenodd;stroke:none"
         d="m 1028.59,1762.88 -61.406,48.26 -5.129,-6.54 61.395,-48.26 5.14,6.54" /><path
         id="path198"
         style="fill:#8f7b4f;fill-opacity:1;fill-rule:evenodd;stroke:none"
         d="m 990.277,1710.34 -56.3,53.61 -5.739,-6.02 56.313,-53.61 5.726,6.02" /><path
         id="path200"
         style="fill:#8f7b4f;fill-opacity:1;fill-rule:evenodd;stroke:none"
         d="m 926.59,1622.21 -45.32,99.48 -7.571,-3.46 45.324,-99.46 7.567,3.44" /><path
         id="path202"
         style="fill:#8f7b4f;fill-opacity:1;fill-rule:evenodd;stroke:none"
         d="m 837.176,1584.06 8.242,1.01 -14.445,118.23 -8.254,-1.01 14.457,-118.23" /><path
         id="path204"
         style="fill:#8f7b4f;fill-opacity:1;fill-rule:evenodd;stroke:none"
         d="m 755.859,1565.29 24.914,133.8 -8.171,1.52 -24.914,-133.8 8.171,-1.52" /><path
         id="path206"
         style="fill:#8f7b4f;fill-opacity:1;fill-rule:evenodd;stroke:none"
         d="m 725.992,1708.64 -8.008,2.21 -98.652,-357.1 8.02,-2.21 98.64,357.1" /><path
         id="path208"
         style="fill:#8f7b4f;fill-opacity:1;fill-rule:evenodd;stroke:none"
         d="m 669.289,1736.91 -7.211,4.14 -144.769,-251.76 7.211,-4.15 144.769,251.77" /><path
         id="path210"
         style="fill:#8f7b4f;fill-opacity:1;fill-rule:evenodd;stroke:none"
         d="m 634.66,1769.62 -6.023,5.74 -169.981,-178.28 6.028,-5.74 169.976,178.28" /><path
         id="path212"
         style="fill:#8f7b4f;fill-opacity:1;fill-rule:evenodd;stroke:none"
         d="m 611.41,1806.14 -4.051,7.25 -178.296,-99.46 4.05,-7.25 178.297,99.46" /><path
         id="path214"
         style="fill:#8f7b4f;fill-opacity:1;fill-rule:evenodd;stroke:none"
         d="m 427.148,1808.18 163.247,45.59 -2.235,7.99 -163.242,-45.57 2.23,-8.01" /><path
         id="path216"
         style="fill:#8f7b4f;fill-opacity:1;fill-rule:evenodd;stroke:none"
         d="m 471.82,1922.5 114.465,-1.34 0.098,8.31 -114.465,1.33 -0.098,-8.3" /><path
         id="path218"
         style="fill:#8f7b4f;fill-opacity:1;fill-rule:evenodd;stroke:none"
         d="m 529.641,1999.18 67.847,-25.73 2.946,7.76 -67.848,25.74 -2.945,-7.77" /><path
         id="path220"
         style="fill:#8f7b4f;fill-opacity:1;fill-rule:evenodd;stroke:none"
         d="m 1753.57,884.031 c 44.47,12.168 82.55,23.867 82.55,134.569 0,25.6 -4.83,45.58 -14.35,59.37 -11.2,16.24 -29.33,24.54 -53.89,24.68 -45.28,0 -68.25,-28.28 -68.25,-84.05 0,-55.768 22.76,-84.061 67.65,-84.061 l 0.6,0.02 c 9.12,0 18.07,1.382 25.88,3.992 l 0.42,0.148 0.1,-0.449 c 2.71,-13.352 -33.37,-47.449 -40.71,-54.219 m 12.66,70.629 h -0.5 c -27.13,0 -40.89,21.68 -40.89,64.46 0,19.71 2.93,35.13 8.74,45.83 6.7,12.37 17.35,18.63 31.66,18.63 h 0.49 c 15.04,-0.12 25.63,-6.21 32.36,-18.64 5.75,-10.6 8.53,-25.59 8.53,-45.82 0,-43.37 -13.21,-64.46 -40.39,-64.46" /><path
         id="path222"
         style="fill:#8f7b4f;fill-opacity:1;fill-rule:evenodd;stroke:none"
         d="m 1334.09,1009.48 c 0,8.82 -7.23,15.82 -15.83,15.82 -8.82,0 -15.82,-7 -15.82,-15.82 0,-8.61 7,-15.832 15.82,-15.832 8.6,0 15.83,7.222 15.83,15.832" /><path
         id="path224"
         style="fill:#8f7b4f;fill-opacity:1;fill-rule:evenodd;stroke:none"
         d="m 1444.15,925.699 v 170.361 l -48.96,-54.48 26.7,4.68 V 925.699 h 22.26" /><path
         id="path226"
         style="fill:#8f7b4f;fill-opacity:1;fill-rule:evenodd;stroke:none"
         d="m 1950.86,925.699 v 170.361 l -48.96,-54.49 26.45,4.69 V 925.699 h 22.51" /><path
         id="path228"
         style="fill:#8f7b4f;fill-opacity:1;fill-rule:evenodd;stroke:none"
         d="m 1619.88,1049.05 c -2.82,2.02 -4.22,3.55 -4.41,4.84 -0.15,1.09 0.48,2.45 1.99,4.42 10.37,10.93 16.08,25.09 16.08,39.9 0,31.93 -25.98,57.91 -57.9,57.91 -31.77,0 -57.61,-25.98 -57.61,-57.91 0,-14.66 5.6,-28.83 15.67,-39.75 1.71,-2.2 2.37,-3.59 2.21,-4.66 -0.2,-1.26 -1.66,-2.8 -4.56,-4.79 -18.52,-14.18 -29.14,-35.73 -29.14,-59.131 0,-40.777 33.3,-73.981 74.25,-73.981 40.2,0 72.91,33.204 72.91,73.981 0,23.471 -10.74,45.021 -29.49,59.171 m -43.68,84.69 c 19.28,0 34.97,-15.71 34.97,-35.01 0,-19.28 -15.69,-34.96 -34.97,-34.96 -19.31,0 -35.01,15.68 -35.01,34.96 0,19.3 15.7,35.01 35.01,35.01 m 0,-194.381 c -28.04,0 -50.84,22.661 -50.84,50.52 0,28.021 22.8,50.801 50.84,50.801 28.01,0 50.8,-22.78 50.8,-50.801 0,-27.859 -22.79,-50.52 -50.8,-50.52" /><path
         id="path230"
         style="fill:#8f7b4f;fill-opacity:1;fill-rule:evenodd;stroke:none"
         d="m 1123.9,1188.55 c 0,-14.04 11.41,-25.46 25.45,-25.46 14.06,0 25.5,11.42 25.5,25.46 0,13.91 -11.44,25.23 -25.5,25.23 -14.04,0 -25.45,-11.32 -25.45,-25.23" /><path
         id="path232"
         style="fill:#8f7b4f;fill-opacity:1;fill-rule:evenodd;stroke:none"
         d="m 1357.93,1424.22 c 0,-14.04 11.44,-25.46 25.5,-25.46 14.03,0 25.44,11.42 25.44,25.46 0,14.05 -11.41,25.49 -25.44,25.49 -14.06,0 -25.5,-11.44 -25.5,-25.49" /><path
         id="path234"
         style="fill:#8f7b4f;fill-opacity:1;fill-rule:evenodd;stroke:none"
         d="m 1812.63,1831.22 c 0,14.03 -11.41,25.44 -25.45,25.44 -13.89,0 -25.19,-11.41 -25.19,-25.44 0,-14.29 11.06,-25.5 25.19,-25.5 14.27,0 25.45,11.21 25.45,25.5" /><path
         id="path236"
         style="fill:#8f7b4f;fill-opacity:1;fill-rule:evenodd;stroke:none"
         d="m 1088.93,1559.41 -37.46,-38.04 c 5.4,-3.02 10.26,-7.18 16.44,-12.66 l 0.62,-0.59 190.87,-194.09 0.47,-0.6 c 7.57,-9.82 12.54,-17.19 16.2,-25.74 l 43.4,43.08 c -7.16,3.47 -14.14,7.99 -19.36,13.35 l -195.86,195.86 c -4.48,4.49 -10.57,11.35 -15.32,19.43" /><path
         id="path238"
         style="fill:#8f7b4f;fill-opacity:1;fill-rule:evenodd;stroke:none"
         d="m 1407.82,1718.2 c -13.5,0 -26.02,5.01 -36.22,14.49 l -0.46,0.45 -37.53,38.62 c -5.16,5.38 -10.87,12.15 -15.28,19.63 l -37.34,-38.23 c 5.45,-2.97 10.27,-7.09 16.41,-12.54 l 0.61,-0.58 190.89,-194.1 0.46,-0.61 c 7.63,-9.88 12.62,-17.31 16.28,-25.94 l 43.43,43.08 c -7.11,3.49 -14.02,7.93 -19.15,13.01 l -71.08,66.26 c -17.28,18.86 -21.96,40.27 -13.16,60.28 12.62,28.65 51.93,48.67 95.6,48.67 51.56,0 96.29,-25.72 124.93,-71.19 l 57.04,55.83 c -17.4,5.52 -35.5,14.25 -54.33,23.33 -34.15,16.46 -69.44,33.47 -104.02,33.47 -14.05,0 -26.85,-2.79 -39.16,-8.53 l -20.92,-9.77 3.11,22.88 c 7.38,54.27 -0.3,104.99 -24.9,162.36 l -40.78,-41.84 c 42.22,-39.23 57.63,-89.02 41.24,-135.39 -13.24,-37.47 -44.36,-63.64 -75.67,-63.64" /><path
         id="path240"
         style="fill:#8f7b4f;fill-opacity:1;fill-rule:evenodd;stroke:none"
         d="m 827.465,908.211 c 5.812,-21.422 9.609,-37.34 8.758,-63.281 l 46.734,45.101 c -21.609,14.379 -40.617,38.571 -42.687,68.41 l -0.403,5.797 128.606,126.312 7.718,-3.24 c 20.805,-8.73 38.459,-19.81 54.789,-42.93 l 49.73,48.89 c -8.11,2.33 -16.61,5.67 -26.19,10.68 l -279.93,138.01 -7.238,-7.1 -0.036,0.03 -23.234,-22.87 -3.187,-3.12 -5.024,-4.96 v 0.02 l -27.742,-27.21 c 7.43,-5.07 15.398,-12.82 21.672,-27.06 l 0.14,-0.36 97.325,-240.389 z m -79.774,266.949 20.207,19.89 176.383,-90.48 -120.199,-115.39 -76.391,185.98" /><path
         id="path242"
         style="fill:#8f7b4f;fill-opacity:1;fill-rule:evenodd;stroke:none"
         d="m 2045.38,1009.48 c 0,8.82 -7.23,15.82 -15.83,15.82 -8.82,0 -15.82,-7 -15.82,-15.82 0,-8.61 7,-15.832 15.82,-15.832 8.6,0 15.83,7.222 15.83,15.832" /><path
         id="path244"
         style="fill:#f2db1d;fill-opacity:1;fill-rule:nonzero;stroke:none"
         d="M 742.406,669.18 2009.77,1942.14 c -2.3,-0.5 -4.66,-1.02 -7.04,-1.55 l -11.73,-2.63 -17.07,-3.81 -11.97,12.76 -143.2,152.74 -15.01,16.01 10.33,19.37 7.09,13.29 c 22.55,42.27 52.41,116.73 66.19,173.15 l -63.11,54.38 -2.24,-2.25 L 252.934,807.34 c 60.222,-57.238 118.812,-102.981 174.457,-136.168 46.3,-27.621 89.554,-45.602 127.011,-52.953 -0.379,3.562 -0.582,7.152 -0.582,10.75 0,26.34 10.231,51.082 28.797,69.66 18.571,18.601 43.317,28.832 69.653,28.832 40.093,0 74.691,-23.961 90.136,-58.281 m 406.924,468.72 c -27.93,0 -50.65,22.72 -50.65,50.66 0,27.81 22.72,50.43 50.65,50.43 27.96,0 50.69,-22.62 50.69,-50.43 0,-27.94 -22.73,-50.66 -50.69,-50.66 m 234.07,235.66 c -27.95,0 -50.69,22.73 -50.69,50.66 0,27.95 22.74,50.7 50.69,50.7 27.93,0 50.66,-22.75 50.66,-50.7 0,-27.93 -22.73,-50.66 -50.66,-50.66 m 403.76,508.32 c 27.93,0 50.66,-22.73 50.66,-50.66 0,-27.94 -22.73,-50.69 -50.66,-50.69 -27.79,0 -50.4,22.75 -50.4,50.69 0,27.93 22.61,50.66 50.4,50.66 m -452.44,-37.63 1.21,-29.15 c 0.25,-6.06 6.3,-15.96 15.79,-25.83 l 37.24,-38.31 c 5.48,-5.02 11.81,-7.55 18.83,-7.55 20.17,0 42.49,20.13 51.92,46.84 6.7,18.95 15.86,68.26 -43.75,116.41 l -10.76,8.68 85.31,87.54 7.76,-16.39 c 29.28,-61.73 40.91,-115.92 36.75,-172.89 9.61,2.48 19.6,3.74 29.85,3.74 40.34,0 79.99,-19.11 114.97,-35.97 25.65,-12.37 49.88,-24.04 70.14,-26.36 l 26.3,-3.02 -116.41,-113.92 -7.78,15.28 c -33.17,65.12 -88.56,72.15 -110.83,72.15 -33.45,0 -63.96,-14.14 -72.52,-33.63 -4.62,-10.48 -1.81,-21.5 8.35,-32.76 l 70.46,-65.63 c 6.13,-6.14 18.89,-11.9 26.97,-13.44 l 23.49,-4.48 -106.33,-105.51 -4.56,23.04 c -3.21,16.13 -6.61,22.38 -17.27,36.27 l -189.53,192.7 c -11.02,9.8 -12.97,11.09 -24.36,11.87 l -27.17,1.89 z m -228.62,-231.45 0.61,-29.87 c 0.13,-5.93 6.29,-16.03 15.36,-25.15 l 195.96,-195.95 c 6.16,-6.33 18.76,-11.87 26.97,-13.44 l 23.46,-4.49 -106.16,-105.35 -4.66,22.85 c -3.26,16.01 -6.66,22.22 -17.28,36.05 l -189.53,192.7 c -10.78,9.59 -12.85,11.34 -24.35,12.13 l -27.335,1.89 z M 769.691,1272.48 1065.91,1126.42 c 16.26,-8.49 28.17,-11.16 42.2,-12.73 l 26.29,-2.97 -108.53,-106.66 -8.11,14.16 c -13.44,23.43 -26.67,34.25 -43.752,42.46 l -107.934,-106 c 4.254,-23.77 24.571,-42.461 42.864,-50.231 l 17.539,-7.429 -123.055,-118.731 4.726,35.793 c 5.832,43.977 2.579,59.438 -4.824,86.809 L 706.637,1139.7 c -5.707,12.87 -12.157,16.3 -20.317,20.64 -1.781,0.94 -3.527,1.88 -5.25,2.88 l -14.269,8.31 102.89,100.95" /><path
         id="path246"
         style="fill:#f2db1d;fill-opacity:1;fill-rule:nonzero;stroke:none"
         d="m 901.449,1098.32 -120.402,61.76 52.25,-127.2 z" /></g></g></svg>