<?xml version="1.0" encoding="utf-8"?>
<!-- Generator: Adobe Illustrator 19.0.0, SVG Export Plug-In . SVG Version: 6.00 Build 0)  -->
<svg version="1.1"
	 id="svg2" xmlns:rdf="http://www.w3.org/1999/02/22-rdf-syntax-ns#" xmlns:dc="http://purl.org/dc/elements/1.1/" xmlns:svg="http://www.w3.org/2000/svg" xmlns:cc="http://creativecommons.org/ns#"
	 xmlns="http://www.w3.org/2000/svg" xmlns:xlink="http://www.w3.org/1999/xlink" x="0px" y="0px" viewBox="278.7 321.8 150 150"
	 style="enable-background:new 278.7 321.8 150 150;" xml:space="preserve">
<style type="text/css">
	.st0{fill:#CAB35B;}
	.st1{fill:#F7EE0C;}
	.st2{fill:#2E64B6;}
	.st3{fill:#E31E27;}
</style>
<g id="g10" transform="matrix(1.3333333,0,0,-1.3333333,0,748.34667)">
	<g id="g12" transform="scale(0.1)">
		<path id="path14" class="st0" d="M3045.5,3056.7l-3.7,15.9l-15.9-3.4c-197.1-42.1-363.1,56.6-364.7,57.6l-8.7,5.2l-8.6-5.3
			c-1.6-1-167.4-100.2-364.6-58.6l-15.9,3.4l-3.7-15.9c-0.7-3-17.2-76.3-13.5-197.4c11.8-379.6,256.3-626.4,399-712.3l8.6-5.2
			l8.6,5.2c142.4,86.3,386.3,333.7,397.1,713.4C3062.9,2980.4,3046.2,3053.6,3045.5,3056.7"/>
		<path id="path16" class="st1" d="M2806.4,3037.9c-77,16.4-133,44.2-153.8,55.5c-36.9-20.3-184.4-92.5-363.4-61
			c-4.5-27.2-12.3-88.3-9.7-173.1c3.1-98.7,22.5-188,51.8-267.4L2806.4,3037.9"/>
		<path id="path18" class="st2" d="M2653.8,2179.7c136,86.3,356.7,317,371.9,667.5l-545.3-511.8
			C2540,2264.2,2602.8,2211.9,2653.8,2179.7"/>
		<path id="path20" class="st3" d="M2531.8,2582.3c19.3-20.6,13.4-43-0.2-55.7l-2.3-2.2l-55.5,59l2.5,2.4
			C2491,2599.5,2514.1,2601.2,2531.8,2582.3L2531.8,2582.3z M3026.6,2879.6l-560.7-526.4c-47.5,59.8-92,131.9-125.7,215.5
			l494.2,463.9c53.6-8.7,115.5-11.1,181.7,0.7C3020.3,3008.3,3027.4,2954.2,3026.6,2879.6L3026.6,2879.6z M2565.3,2613.8
			c-31.3,33.2-80.5,35.7-113.4,4.7l-39.5-37.1l111.2-118.2l39.5,37.1C2595.8,2531.1,2596.5,2580.5,2565.3,2613.8L2565.3,2613.8z
			 M2661.4,2620.8c-9.3,10-25,10.5-35,1.1c-10-9.3-10.5-25-1.1-35s25-10.5,35-1.1C2670.3,2595.1,2670.8,2610.8,2661.4,2620.8z
			 M2745.5,2671.9l-111,118.3l-34-32l111-118.3L2745.5,2671.9z M2804.2,2754.7c-9.3,10-25,10.5-35,1.1c-10-9.3-10.5-25-1.1-35
			c9.3-10,25-10.5,35-1.1C2813,2729.1,2813.5,2744.7,2804.2,2754.7z M2852.2,2844.3l36.1,33.9l-28.5,30.3l-36.1-33.9l-18.3,19.3
			l36.7,34.5l-28.5,30.3l-70.5-66.3l111.2-118.2l33.8,31.8L2852.2,2844.3z M2956.5,2897.7c-9.3,10-25,10.5-35,1.1
			c-10-9.3-10.5-25-1.1-35c9.3-10,25-10.5,35-1.1C2965.4,2872.1,2965.9,2887.7,2956.5,2897.7"/>
	</g>
</g>
</svg>
