<?xml version="1.0" encoding="UTF-8" standalone="no"?>
<svg
   xmlns:dc="http://purl.org/dc/elements/1.1/"
   xmlns:cc="http://creativecommons.org/ns#"
   xmlns:rdf="http://www.w3.org/1999/02/22-rdf-syntax-ns#"
   xmlns:svg="http://www.w3.org/2000/svg"
   xmlns="http://www.w3.org/2000/svg"
   viewBox="0 0 374.82666 568.89331"
   height="568.89331"
   width="374.82666"
   xml:space="preserve"
   id="svg2"
   version="1.1"><metadata
     id="metadata8"><rdf:RDF><cc:Work
         rdf:about=""><dc:format>image/svg+xml</dc:format><dc:type
           rdf:resource="http://purl.org/dc/dcmitype/StillImage" /></cc:Work></rdf:RDF></metadata><defs
     id="defs6" /><g
     transform="matrix(1.3333333,0,0,-1.3333333,0,568.89333)"
     id="g10"><g
       transform="scale(0.1)"
       id="g12"><path
         id="path14"
         style="fill:#2f97da;fill-opacity:1;fill-rule:nonzero;stroke:none"
         d="m 2658.73,3979.63 v 287.11 h -271.58 v -207.97 h -287.97 v 207.97 h -271.97 v -207.97 h -287.92 v 207.97 H 1267.34 V 4058.77 H 979.355 v 207.97 H 707.402 V 4058.77 H 419.438 v 207.97 H 147.855 v -287.11 c -7.468,-841.87 90.411,-1634.14 596.954,-2253.73 186.886,-219.29 409.331,-404.65 658.511,-489.39 249.18,84.74 471.56,270.1 658.45,489.39 506.57,619.59 604.42,1411.86 596.96,2253.73" /><path
         id="path16"
         style="fill:#ffffff;fill-opacity:1;fill-rule:nonzero;stroke:none"
         d="m 987.383,3418.32 v -1852.8 c 128.567,-111.38 263.747,-208.29 415.937,-260.61 152.2,52.32 287.36,149.23 415.91,260.61 v 1852.8 H 987.383" /><path
         id="path18"
         style="fill:#ffffff;fill-opacity:1;fill-rule:nonzero;stroke:none"
         d="m 2450.75,4202.75 0.4,-207.96 h -415.96 v 207.96 H 1891.21 V 3994.79 H 1475.3 v 207.96 H 1331.33 V 3994.79 H 915.383 v 207.96 H 771.395 V 3994.79 H 355.77 l 0.046,207.96 H 212.168 v -719.9 H 2594.42 v 719.9 h -143.67" /><path
         id="path20"
         style="fill:#2f97da;fill-opacity:1;fill-rule:nonzero;stroke:none"
         d="m 1833.61,3547.43 v 383.13 h 298.18 v -59.05 H 1915 v -87.81 h 188.4 v -57.48 H 1915 v -178.79 h -81.39" /><path
         id="path22"
         style="fill:#2f97da;fill-opacity:1;fill-rule:nonzero;stroke:none"
         d="m 1232.22,3696.2 c 27.16,0 49.16,22 49.16,49.18 0,27.14 -22,49.21 -49.16,49.21 -27.16,0 -49.21,-22.07 -49.21,-49.21 0,-27.18 22.05,-49.18 49.21,-49.18" /><path
         id="path24"
         style="fill:#2f97da;fill-opacity:1;fill-rule:nonzero;stroke:none"
         d="m 1720.95,3693 c 27.12,0 49.16,22.05 49.16,49.21 0,27.14 -22.04,49.18 -49.16,49.18 -27.16,0 -49.14,-22.04 -49.14,-49.18 0,-27.16 21.98,-49.21 49.14,-49.21" /><path
         id="path26"
         style="fill:#2f97da;fill-opacity:1;fill-rule:nonzero;stroke:none"
         d="m 900.387,3547.43 h 36.726 l 122.927,298.52 v -298.52 h 68.61 v 383.13 H 1016.92 L 900.387,3663.97 783.852,3930.56 H 672.129 v -383.13 h 68.648 v 296.94 l 124.516,-296.94 h 35.094" /><path
         id="path28"
         style="fill:#2f97da;fill-opacity:1;fill-rule:nonzero;stroke:none"
         d="m 1337.82,3547.43 v 383.13 h 298.19 v -59.05 h -216.8 v -87.81 h 188.4 v -57.48 h -188.4 v -178.79 h -81.39" /><path
         id="path30"
         style="fill:#2f97da;fill-opacity:1;fill-rule:nonzero;stroke:none"
         d="m 1626.84,351.98 -137.11,3.301 -86.41,102.61 -86.42,-102.61 -137.11,-3.301 58.43,-123.031 L 1179.79,105.91 1316.9,102.629 1403.32,0 l 86.41,102.629 137.11,3.281 -58.43,123.039 58.43,123.031" /><path
         id="path32"
         style="fill:#2f97da;fill-opacity:1;fill-rule:nonzero;stroke:none"
         d="m 604.91,1246.97 c 7.563,-5.75 14.836,-12.06 23.082,-16.64 8.242,-4.54 18.031,-7.67 26.895,-11.06 -69.512,-168.32 -127.114,-304.059 -172.043,-432.188 -15.832,10.309 -30.711,20.898 -47.18,30.027 -16.445,9.121 -32.144,15.52 -49.246,23.481 47.152,96.09 85.293,192.63 126.719,288.09 -94.602,-65.19 -188.649,-130.711 -280.973,-198.7 -6.992,5.418 -13.734,9.922 -22.336,12.391 7.363,102.059 11.485,218.999 17.988,336.109 -70.918,-95.99 -125.703,-172.53 -173.1441,-253.9 -8.7305,6.42 -16.5821,13.07 -25.9922,18.27 -9.4102,5.26 -18.6055,8.03 -28.6797,12.08 86.7461,106.49 181.262,232.45 283.77,370.2 7.609,-5.78 14.261,-11.78 22.484,-16.34 8.25,-4.56 17.461,-7.38 26.367,-10.78 -8.906,-115.8 -13.336,-233.31 -18.094,-351.46 88.688,60.06 189.899,124.65 290.383,200.42" /><path
         id="path34"
         style="fill:#2f97da;fill-opacity:1;fill-rule:nonzero;stroke:none"
         d="m 782.754,880.332 c -18.145,-2.82 -48.945,-0.84 -71.781,-10.73 -20.504,-9.133 -29.629,-27.582 -35.188,-48.352 -6.39,-24.031 -6.082,-54.051 21.828,-61.5 39.637,-10.629 58.309,25.461 68.293,57.582 z M 842.145,743.34 c -6.391,-24.031 -1.344,-33.731 24.957,-39.371 l -3.993,-14.938 c -17.484,-2.961 -44.949,-6.75 -63.121,-1.902 -30.531,8.152 -48.871,33.242 -51.629,64.613 -24.867,-25.371 -62.035,-34.211 -95.808,-25.183 -53.266,14.25 -85.051,54.089 -69.93,110.562 16.488,61.711 59.016,69.828 145.414,67.598 17.281,-0.438 35.227,-1.059 51.914,4.191 9.703,5.07 13.914,12.961 16.516,22.719 8.336,31.172 -16.531,65.68 -46.383,73.651 -41.582,11.12 -82.98,-8.409 -90.016,-19.081 l -4.539,1.231 1.961,41.22 c 38.188,20.42 90.871,22.34 131.813,11.38 54.543,-14.59 117.48,-55.069 100.109,-120.038 L 842.145,743.34" /><path
         id="path36"
         style="fill:#2f97da;fill-opacity:1;fill-rule:nonzero;stroke:none"
         d="m 1023.27,638.012 c -14.93,4.258 -29.715,9.187 -44.887,12.148 -15.164,2.949 -30.727,3.891 -46.16,5.551 l 97.487,501.429 c 14.9,-4.28 29.69,-9.22 44.88,-12.15 15.17,-2.93 30.74,-3.94 46.17,-5.55 l -97.49,-501.428" /><path
         id="path38"
         style="fill:#2f97da;fill-opacity:1;fill-rule:nonzero;stroke:none"
         d="m 1170.23,948.391 c 15.41,-1.61 30.86,-3.911 46.32,-4.192 15.47,-0.277 30.99,1.481 46.47,2.512 l -0.91,-50.41 c 20.11,31.941 60.87,55.418 99.87,54.719 42.37,-0.77 74.96,-22.231 88.34,-62.821 24.19,35.211 58.97,60.141 103.33,59.352 78.02,-1.41 104.1,-47.621 102.82,-119.602 l -3.89,-214.5 c -15.43,1.61 -30.88,3.91 -46.33,4.192 -15.48,0.257 -31,-1.461 -46.48,-2.512 l 3.29,182.23 c 0.81,45.051 -2.36,93.563 -47.42,94.352 -47.75,0.879 -56.35,-29.231 -57.12,-70.949 l -3.68,-203.742 c -15.43,1.589 -30.87,3.878 -46.34,4.16 -15.46,0.3 -30.96,-1.45 -46.45,-2.508 l 3.28,182.258 c 0.82,45.039 -2.34,93.55 -47.4,94.351 -46.4,0.828 -56.59,-41.351 -57.25,-78.34 l -3.55,-196.371 c -15.43,1.61 -30.86,3.899 -46.34,4.192 -15.47,0.289 -31,-1.461 -46.47,-2.512 l 5.91,326.141" /><path
         id="path40"
         style="fill:#2f97da;fill-opacity:1;fill-rule:nonzero;stroke:none"
         d="m 1758.84,1049.74 c -3.54,22.57 13.83,46.37 36.41,49.95 23.21,3.66 46.18,-12.48 49.93,-36.38 3.75,-23.89 -12.46,-46.16 -36.38,-49.95 -21.91,-3.44 -46.49,14.46 -49.96,36.38 z m 225.77,35.49 c 3.65,-23.24 -12.47,-46.17 -35.69,-49.83 -23.92,-3.75 -46.99,13.01 -50.61,36.27 -3.66,23.23 13.77,46.41 36.99,50.04 22.62,3.56 45.75,-13.91 49.31,-36.48 z M 1847.93,799.07 c 6.68,-42.5 26.11,-131.289 83.86,-122.211 50.93,9.36 52.79,92.672 41.32,165.711 -10.15,64.391 -35.29,116.25 -79.8,109.262 -53.77,-8.492 -57.7,-74.41 -45.38,-152.762 z M 1750,781.629 c -16.39,104.242 33.03,183.453 134.61,199.441 100.3,15.762 172.98,-35.39 188.41,-133.679 C 2088.89,746.48 2040.75,663.379 1936.49,647 1838.24,631.539 1765.43,683.379 1750,781.629" /><path
         id="path42"
         style="fill:#2f97da;fill-opacity:1;fill-rule:nonzero;stroke:none"
         d="m 2438.25,803.582 c -15.78,-5.871 -31.86,-11.121 -47.11,-18.223 -15.24,-7.097 -29.63,-16.019 -44.27,-24.328 l -194.66,418.039 232.18,108.1 c 2.73,-9.08 5.17,-19.09 9.18,-27.63 3.94,-8.5 10.05,-16.81 15.22,-24.75 -39.15,-13.06 -80.77,-27.25 -144.72,-57.03 l 60.97,-131.02 64.6,30.07 c 23.76,11.06 47.03,24.84 71.19,39.81 2.75,-9.08 5.18,-19.09 9.17,-27.6 3.97,-8.55 10.05,-16.84 15.25,-24.8 -26.74,-9.48 -52.53,-17.79 -76.9,-29.12 l -63.99,-29.82 93.89,-201.698" /><path
         id="path44"
         style="fill:#2f97da;fill-opacity:1;fill-rule:nonzero;stroke:none"
         d="m 2773.31,964.66 c -15.59,-6.418 -31.49,-12.238 -46.46,-19.859 -14.97,-7.629 -29.03,-17.02 -43.41,-25.86 l -209.1,410.989 228.26,116.17 c 3.07,-9.03 5.84,-18.9 10.1,-27.32 4.3,-8.38 10.64,-16.44 16.09,-24.21 -38.67,-14.41 -79.74,-30.03 -142.65,-62.03 l 65.53,-128.84 63.52,32.32 c 23.35,11.9 46.12,26.5 69.76,42.28 3.08,-8.99 5.86,-18.89 10.11,-27.29 4.25,-8.37 10.65,-16.45 16.1,-24.23 -26.4,-10.4 -51.88,-19.6 -75.84,-31.81 l -62.9,-32.01 100.89,-198.3" /></g></g></svg>