<svg width="90" height="91" viewBox="0 0 90 91" xmlns="http://www.w3.org/2000/svg" xmlns:xlink="http://www.w3.org/1999/xlink"><title>bk_ico_bk_logo</title><defs><path id="a" d="M0 .053h89.948V90H0z"/></defs><g fill="none" fill-rule="evenodd"><g transform="translate(0 .5)"><mask id="b" fill="#fff"><use xlink:href="#a"/></mask><path d="M0 45.027C0 20.188 20.136.053 44.974.053c24.838 0 44.974 20.135 44.974 44.974C89.948 69.867 69.812 90 44.974 90 20.136 90 0 69.866 0 45.027" fill="#FFF" mask="url(#b)"/></g><path d="M76.063 57.8c-5.682 12.74-16.584 21.607-30.872 21.807-10.403.147-19.585-3.41-26.215-9.614l-4.011 1.71.006-6.197C10.601 59.62 8.07 52.18 8.07 43.726c0-21.652 16.613-38.721 39.783-38.721 3.783 0 7.2.588 9.78 1.171-3.971-1.27-7.917-1.957-12.31-1.957-24.867 0-41.603 20.129-41.603 40.887 0 22.62 17.778 41.569 41.11 41.569 22.288 0 34.311-15.685 38.158-25.12L76.063 57.8z" fill="#0032A0"/><path d="M70.316 53.345c3.27-.373 5.534-1.68 6.776-2.897 1.133-1.106 1.397-2.633 1.398-3.766.046-1.665 0-6.919 0-6.919l-8.655 1.867-.003 2.012c.015 1.333.66 2.058 2.061 1.801.441-.07 1.118-.287 1.118-.287l.011 1.647c-.007-.047.127.918-2.055 1.348-2.853.446-4.15-1.302-4.185-4.395.058-3.314 1.938-5.225 4.218-5.747 2.568-.586 4.021.023 4.876.152 2.865.428 3.679-3.855 1.072-4.857-1.928-.775-4.43-.915-6.814-.44-3.184.632-9.445 3.286-9.461 11.912.015 6.853 5.089 9.085 9.643 8.569M42.19 60.748l2.88-.99c2.13-.737 2.907-2.007 2.896-4.203-.025-2.383-.03-7.033-.03-7.033l6.165 7.112c1.001 1.037 2.256 1.125 3.405.788 1.189-.349 2.178-1.437 2.207-2.971.01-5.138-.005-17.674-.005-17.674s-1.59.34-2.912.715c-1.523.432-2.693 1.404-2.693 3.968l-.003 6.118s-3.47-4.357-5.74-6.63c-1.211-1.213-3.217-.488-3.217-.488l-2.959.894.006 20.394zM40.272 40.878s-1.861.545-3.376 1.09c-1.968.711-3.1 1.848-3.1 4.82l-.006 16.935s1.724-.588 3.33-1.193c2.282-.859 3.144-2.032 3.144-4.426l.008-17.226M31.115 44.79c-1.71-.774-3.177.089-3.8 1.043l-5.258 8.903-.01-7.179-6.196 2.558-.019 20.302 4.364-1.823s.858-.242 1.375-1.052c.475-.743.457-1.997.457-1.997l.006-6.435 4.88 5.155c1.07 1.108 3.038 1.676 4.775.28 1.57-1.264 1.327-3.416.451-4.382l-4.444-4.455s3.911-6.14 4.552-7.168c.849-1.36.42-3.049-1.133-3.75M18.807 42.188c-.016-1.127-.882-1.74-2.378-.981l-.005 3.616s.484-.216.84-.382c.876-.411 1.564-1.148 1.543-2.253zm-2.408-3.27a9.1 9.1 0 0 0 .686-.304c.812-.399 1.389-1.139 1.397-2.095.007-1.092-.883-1.374-2.082-.748v3.147zm6.34 2.753c.047 2.854-1.99 4.372-4.643 5.482l-5.438 2.332-.013-14.866s3.427-1.41 4.544-1.821c3.177-1.165 5.044.239 5.044 2.382 0 1.43-.604 2.644-1.922 3.712 1.295.218 2.403 1.292 2.427 2.779zM33.152 36.892c-.036 4.055-1.933 5.636-4.774 6.47-3.222.945-5.337-.574-5.32-3.62.013-2.598.002-9.093.002-9.093s.7-.28 1.867-.665c1.037-.343 1.911.031 1.911 1.28l.013 7.508c0 .911.413 1.488 1.282 1.27 1.134-.284 1.275-1.427 1.287-2.34l.005-9.171s.98-.381 1.822-.62c1.04-.298 1.901.033 1.901 1.275l.004 7.706zM56.635 34.502l.031-13.47c2.324-.529 6.053-1.275 8.015-1.618 0 0-.009 1.04-.009 1.564 0 .807-.283 1.393-1.14 1.573l-3.148.654.003 2.064 3.932-.83s.006.697.006 1.503c0 .866-.398 1.278-1.157 1.444-.605.131-2.78.592-2.78.592l-.01 2.601 4.439-.965s-.003.68-.003 1.577c0 .996-.51 1.57-1.327 1.747-2.432.526-6.852 1.564-6.852 1.564M37.854 32.327c.004 0 2.2-1.128 2.174-2.914-.021-1.53-1.436-1.195-2.173-.926l-.001 3.84zm.007 2.074l-.011 3.615c-.01.973-.68 1.676-1.528 2 0 .03 0-.031 0 0-.708.24-2.213.756-2.213.756l.004-13.844s3.11-1.076 4.94-1.499c2.84-.656 4.86.629 4.822 2.91-.015 2.167-1.234 3.486-2.33 4.388l2.407 2.295c.741.712.792 1.999-.04 2.775-.494.46-1.814.937-2.845-.106L37.86 34.4zM69.276 24.952c.003-.001 2.157-.825 2.13-2.561-.022-1.468-1.457-1.202-2.135-1.051l.005 3.612zm-3.609 7.638l.005-13.367s3.877-.69 4.879-.82c2.778-.358 4.643 1.194 4.606 3.4-.015 1.94-1.226 3.109-2.255 3.807 0 0 1.89 2.145 2.397 2.714.68.763.65 2.071-.357 2.71-.99.631-1.97.3-2.54-.333l-3.12-3.685s.01 2.267.008 3.257c-.01.984-.576 1.702-1.59 1.915l-2.033.402z" fill="#E2231B"/><path d="M55.679 32.236c-.002.795-.293 1.727-1 2.35-.704.623-1.723 1.291-3.773 1.707-3.626.66-6.597-1.36-6.597-5.933 0-4.468 2.648-8.21 7.826-8.39 2.387-.083 3.501.697 3.471 1.959-.03 1.18-.844 1.865-2.262 1.635-.58-.074-1.327-.178-2.148.033-1.644.424-2.85 1.938-2.891 4.518.019 1.963.75 2.995 2.07 3.027.94.023 1.848-.375 1.842-.983l-.007-1.536s-.364.083-.815.179c-.718.149-1.218-.315-1.225-1.03.002-.955.007-1.54.007-1.54l5.501-1.256v5.26z" fill="#E2231B"/><path d="M54.214 16.665c1.285-.385 2.246-1.363 2.233-2.473-.021-1.756-3.942-4.275-10.481-4.712 6.417-.516 13.423 2.334 13.367 4.79-.034 1.468-1.835 1.59-5.12 2.395m-29.126 7.293c-.134 1.144-1.561.99-1.471-.088.225-2.707 4.335-9.107 10.424-11.796-3.735 2.284-7.668 6.944-8.953 11.884m39.903-8.952s-3.067-5.219-13.918-6.377c-5.81-.619-13.72.558-19.265 3.547-10.045 5.415-11.55 14.335-11.55 14.335-.056.217-.15.884.075 1.167.23.288.564.283.977.144 3.548-1.198 14.114-4.704 20.783-6.473 9.49-2.519 17.286-4.05 22.29-4.902.354-.06.673-.177.806-.504.194-.473-.198-.937-.198-.937M68.476 59.562c-2.613 5.526-7.34 9.215-12.26 11.148 5.541-3.146 8.687-7.757 10.219-11.686.615-1.876 2.798-1.06 2.041.538m3.757-4.64c-.261-.271-.635-.276-1.151-.154-11.482 2.694-30.588 8.516-41.603 13.229-.476.203-.689.278-.838.62-.229.528.294 1.052.294 1.052 2.246 2.814 12.22 6.384 23.044 3.77 16.533-3.992 20.026-15.667 20.422-17.317.081-.335.145-.877-.168-1.2" fill="#F7A800"/><path d="M78.95 56.913c0 1.223.971 2.135 2.13 2.135a2.11 2.11 0 0 0 2.12-2.135c0-1.2-.967-2.115-2.12-2.115-1.159 0-2.13.915-2.13 2.115zm.383 0c0-1.02.758-1.803 1.747-1.803.977 0 1.736.783 1.736 1.803 0 1.04-.759 1.824-1.736 1.824-.989 0-1.747-.785-1.747-1.824zm.857 1.276h.493v-1.072h.307l.607 1.072h.518l-.664-1.095c.366-.031.652-.208.652-.67 0-.545-.35-.743-.974-.743h-.939v2.508zm.493-2.117h.415c.226 0 .512.041.512.309 0 .307-.209.347-.488.347h-.44v-.656z" fill="#E2231B"/></g></svg>